<?xml version="1.0" standalone="yes"?>
<svg xmlns="http://www.w3.org/2000/svg" viewBox="0 0 512 512">
<symbol id="playAll" viewBox="0 0 512 512"><defs><clipPath id="clip-1"><rect x="0" y="0" transform="scale(21.33333,21.33333)" width="24" height="24" fill="none"></rect></clipPath><clipPath id="clip-2"><rect x="24" y="24" transform="scale(10.66667,10.66667)" width="24" height="24" fill="none"></rect></clipPath></defs><g fill="none" fill-rule="nonzero" stroke="none" stroke-width="1" stroke-linecap="butt" stroke-linejoin="miter" stroke-miterlimit="10" stroke-dasharray="" stroke-dashoffset="0" font-family="none" font-weight="none" font-size="none" text-anchor="none" style="mix-blend-mode: normal"><g clip-path="url(#clip-1)"><path d="M170.66667,405.33333v-298.66667l234.66667,149.33333h-149.33333v95.0303z" fill="currentColor"></path></g><g clip-path="url(#clip-2)"><path d="M288,448h128v-21.33333h-128zM288,320v21.33333h192v-21.33333zM288,394.66667h192v-21.33333h-192z" fill="currentColor"></path></g></g></symbol><symbol id="exportSelected" viewBox="0 0 512 512"><defs><clipPath id="clip-1"><rect x="0" y="0" transform="scale(21.33333,21.33333)" width="24" height="24" fill="none"></rect></clipPath><clipPath id="clip-2"><rect x="24" y="24" transform="scale(10.66667,10.66667)" width="24" height="24" fill="none"></rect></clipPath></defs><g fill="none" fill-rule="nonzero" stroke="none" stroke-width="1" stroke-linecap="butt" stroke-linejoin="miter" stroke-miterlimit="10" stroke-dasharray="" stroke-dashoffset="0" font-family="none" font-weight="none" font-size="none" text-anchor="none" style="mix-blend-mode: normal"><g clip-path="url(#clip-1)"><path d="M448,149.33333v106.66667h-192v21.33333c-35.41333,0 -64,28.58667 -64,64c0,35.41333 28.58667,64 64,64l0,42.66667h-149.33333c-23.56415,0 -42.66667,-19.10252 -42.66667,-42.66667v-298.66667c0,-23.56415 19.10252,-42.66667 42.66667,-42.66667h256zM320,106.66667h-213.33333v85.33333h213.33333z" fill="currentColor"></path></g><g clip-path="url(#clip-2)"><path d="M288,352v64h42.66667l53.33333,53.33333v-170.66667l-53.33333,53.33333zM432,384c-0.00457,-18.23022 -10.33591,-34.88435 -26.66667,-42.98667v85.86667c15.78667,-7.78667 26.66667,-24 26.66667,-42.88zM405.33333,290.45333v21.97333c30.82667,9.17333 53.33333,37.76 53.33333,71.57333c0,33.81333 -22.50667,62.4 -53.33333,71.57333v21.97333c42.77333,-9.70667 74.66667,-47.89333 74.66667,-93.54667c0,-45.65333 -31.89333,-83.84 -74.66667,-93.54667z" fill="currentColor"></path></g></g></symbol><symbol id="exportConnectAll" viewBox="0 0 512 512"><defs><clipPath id="clip-1"><rect x="0" y="0" transform="scale(21.33333,21.33333)" width="24" height="24" fill="none"></rect></clipPath><clipPath id="clip-2"><rect x="24" y="24" transform="scale(10.66667,10.66667)" width="24" height="24" fill="none"></rect></clipPath></defs><g fill="none" fill-rule="nonzero" stroke="none" stroke-width="1" stroke-linecap="butt" stroke-linejoin="miter" stroke-miterlimit="10" stroke-dasharray="" stroke-dashoffset="0" font-family="none" font-weight="none" font-size="none" text-anchor="none" style="mix-blend-mode: normal"><g clip-path="url(#clip-1)"><path d="M448,149.33333v106.66667h-192v21.33333c-35.41333,0 -64,28.58667 -64,64c0,35.41333 28.58667,64 64,64l0,42.66667h-149.33333c-23.56415,0 -42.66667,-19.10252 -42.66667,-42.66667v-298.66667c0,-23.56415 19.10252,-42.66667 42.66667,-42.66667h256zM320,106.66667h-213.33333v85.33333h213.33333z" fill="currentColor"></path></g><g clip-path="url(#clip-2)"><path d="M297.6,384c0,-18.24 14.82667,-33.06667 33.06667,-33.06667h42.66667v-20.26667h-42.66667c-29.44,0 -53.33333,23.89333 -53.33333,53.33333c0,29.44 23.89333,53.33333 53.33333,53.33333h42.66667v-20.26667h-42.66667c-18.24,0 -33.06667,-14.82667 -33.06667,-33.06667zM341.33333,394.66667h85.33333v-21.33333h-85.33333zM437.33333,330.66667h-42.66667v20.26667h42.66667c18.24,0 33.06667,14.82667 33.06667,33.06667c0,18.24 -14.82667,33.06667 -33.06667,33.06667h-42.66667v20.26667h42.66667c29.44,0 53.33333,-23.89333 53.33333,-53.33333c0,-29.44 -23.89333,-53.33333 -53.33333,-53.33333z" fill="currentColor"></path></g></g></symbol><symbol id="exportAll" viewBox="0 0 512 512"><defs><clipPath id="clip-1"><rect x="0" y="0" transform="scale(21.33333,21.33333)" width="24" height="24" fill="none"></rect></clipPath><clipPath id="clip-2"><rect x="24" y="24" transform="scale(10.66667,10.66667)" width="24" height="24" fill="none"></rect></clipPath></defs><g fill="none" fill-rule="nonzero" stroke="none" stroke-width="1" stroke-linecap="butt" stroke-linejoin="miter" stroke-miterlimit="10" stroke-dasharray="" stroke-dashoffset="0" font-family="none" font-weight="none" font-size="none" text-anchor="none" style="mix-blend-mode: normal"><g clip-path="url(#clip-1)"><path d="M448,149.33333v106.66667h-192v21.33333c-35.41333,0 -64,28.58667 -64,64c0,35.41333 28.58667,64 64,64l0,42.66667h-149.33333c-23.56415,0 -42.66667,-19.10252 -42.66667,-42.66667v-298.66667c0,-23.56415 19.10252,-42.66667 42.66667,-42.66667h256zM320,106.66667h-213.33333v85.33333h213.33333z" fill="currentColor"></path></g><g clip-path="url(#clip-2)"><path d="M288,448h128v-21.33333h-128zM288,320v21.33333h192v-21.33333zM288,394.66667h192v-21.33333h-192z" fill="currentColor"></path></g></g></symbol><symbol id="importText" viewBox="0 0 512 512"><defs><clipPath id="clip-1"><rect x="0" y="0" transform="scale(21.33333,21.33333)" width="24" height="24" fill="none"></rect></clipPath><clipPath id="clip-2"><rect x="24" y="24" transform="scale(10.66667,10.66667)" width="24" height="24" fill="none"></rect></clipPath></defs><g fill="none" fill-rule="nonzero" stroke="none" stroke-width="1" stroke-linecap="butt" stroke-linejoin="miter" stroke-miterlimit="10" stroke-dasharray="" stroke-dashoffset="0" font-family="none" font-weight="none" font-size="none" text-anchor="none" style="mix-blend-mode: normal"><g clip-path="url(#clip-1)"><path d="M106.66667,384l149.33333,0l0,42.66667h-149.33333zM256,64l149.33333,149.33333h-85.33333l0,42.66667h-64v85.33333l-64,0v-128h-85.33333z" fill="currentColor"></path></g><g clip-path="url(#clip-2)"><path d="M480,309.33333c-11.84,-3.73333 -24.85333,-5.33333 -37.33333,-5.33333c-20.8,0 -43.2,4.26667 -58.66667,16c-15.46667,-11.73333 -37.86667,-16 -58.66667,-16c-20.8,0 -43.2,4.26667 -58.66667,16v156.26667c0,2.66667 2.66667,5.33333 5.33333,5.33333c1.06667,0 1.6,-0.53333 2.66667,-0.53333c14.4,-6.93333 35.2,-11.73333 50.66667,-11.73333c20.8,0 43.2,4.26667 58.66667,16c14.4,-9.06667 40.53333,-16 58.66667,-16c17.6,0 35.73333,3.2 50.66667,11.2c1.06667,0.53333 1.6,0.53333 2.66667,0.53333c2.66667,0 5.33333,-2.66667 5.33333,-5.33333v-155.73333c-6.4,-4.8 -13.33333,-8 -21.33333,-10.66667zM480,453.33333c-11.73333,-3.73333 -24.53333,-5.33333 -37.33333,-5.33333c-18.13333,0 -44.26667,6.93333 -58.66667,16v-122.66667c14.4,-9.06667 40.53333,-16 58.66667,-16c12.8,0 25.6,1.6 37.33333,5.33333z" fill="currentColor"></path></g></g></symbol>
</svg>
